<svg xmlns="http://www.w3.org/2000/svg" xmlns:svg="http://www.w3.org/2000/svg" id="svg3336" width="109.868" height="109.868" version="1.1" viewBox="0 0 109.88 107.615"><metadata id="metadata3352"/><path style="fill:#274c72" id="path3340" d="m 0,50.747323 c 0,-13.81 11.21,-25 25.02,-25 1.25,1.25 15.22,15.22 17,17 l -17.05,0 -0.02,0 c -4.42,0 -8,3.58 -8,8 0,4.42 3.58,8 8,8 l 0.02,0 0,0 0.04,0 12.69,0 10.97,0 c 0,0 0,0 0,0 l 9.37,0 17,17 -26.37,0 -10.96,0 -12.69,0 -0.04,0 -0.02,0 c -4.42,0 -8,3.58 -8,8 0,4.42 3.58,8 8,8 l 0.02,0 0,0 0.05,0 23.64,0 c 0,0 0,0 0,0 l 42.36,0 17,17.000007 -83,0 c 0,0 -0.01,0 -0.02,0 -13.81,0 -25,-11.190007 -25,-25.000007 0.01,-6.08 2.23,-11.95 6.25,-16.51 -4.02,-4.56 -6.24,-10.42 -6.25,-16.49 z"/><path style="fill:#404041" id="path3342" d="m 51.88,-1.1326776 c -13.81,0 -25,11.2100016 -25,25.0200016 1.25,1.25 15.22,15.22 17,17 l 0,-17.05 0,-0.02 c 0,-4.42 3.58,-8 8,-8 4.42,0 8,3.58 8,8 l 0,0.02 0,0 0,0.04 0,12.69 0,10.97 c 0,0 0,0 0,0 l 0,9.37 17,17 0,-26.37 0,-10.96 0,-12.69 0,-0.04 0,-0.02 c 0,-4.42 3.58,-8 8,-8 4.42,0 8,3.58 8,8 l 0,0.02 0,0 0,0.05 0,23.64 c 0,0 0,0 0,0 l 0,42.36 17,17.000006 0,-83.000006 c 0,0 0,-0.01 0,-0.02 0,-13.81 -11.19,-25.0000016 -25,-25.0000016 -6.08,0.01 -11.95,2.23 -16.51,6.25 -4.55,-4.02 -10.42,-6.24 -16.49,-6.26 z"/></svg>